HIERARCHY
ROOT joint_Root
{
	OFFSET 0.0 0.0 0.0
	CHANNELS 6 Xposition Yposition Zposition Zrotation Xrotation Yrotation 
	JOINT Hips
	{
		OFFSET 4.5925 91.4895 -427.239
		CHANNELS 6 Xposition Yposition Zposition Zrotation Xrotation Yrotation 
		JOINT Spine
		{
			OFFSET 15.7357 0.0 0.0
			CHANNELS 6 Xposition Yposition Zposition Zrotation Xrotation Yrotation 
			JOINT Chest
			{
				OFFSET 8.98455 -0.406207 0.0
				CHANNELS 6 Xposition Yposition Zposition Zrotation Xrotation Yrotation 
				JOINT Neck
				{
					OFFSET 16.3773 0.0 0.0
					CHANNELS 6 Xposition Yposition Zposition Zrotation Xrotation Yrotation 
					JOINT Head
					{
						OFFSET 6.45672 0.0 0.0
						CHANNELS 6 Xposition Yposition Zposition Zrotation Xrotation Yrotation 
						End Site
						{
							OFFSET 0.0 0.0 0.0
						}
					}
				}
				JOINT Shoulder_L
				{
					OFFSET 12.9942 -0.242716 4.98039
					CHANNELS 6 Xposition Yposition Zposition Zrotation Xrotation Yrotation 
					JOINT UpperArm_L
					{
						OFFSET 5.34809 0.0 0.0
						CHANNELS 6 Xposition Yposition Zposition Zrotation Xrotation Yrotation 
						JOINT LowerArm_L
						{
							OFFSET 24.3286 1.87007e-05 0.0
							CHANNELS 6 Xposition Yposition Zposition Zrotation Xrotation Yrotation 
							JOINT Hand_L
							{
								OFFSET 22.2916 0.0 0.0
								CHANNELS 6 Xposition Yposition Zposition Zrotation Xrotation Yrotation 
								End Site
								{
									OFFSET 0.0 0.0 0.0
								}
							}
						}
					}
				}
				JOINT Shoulder_R
				{
					OFFSET 12.9945 -0.242716 -4.98039
					CHANNELS 6 Xposition Yposition Zposition Zrotation Xrotation Yrotation 
					JOINT UpperArm_R
					{
						OFFSET -5.34813 0.0 0.0
						CHANNELS 6 Xposition Yposition Zposition Zrotation Xrotation Yrotation 
						JOINT LowerArm_R
						{
							OFFSET -24.3289 0.000322201 0.0
							CHANNELS 6 Xposition Yposition Zposition Zrotation Xrotation Yrotation 
							JOINT Hand_R
							{
								OFFSET -22.2915 -0.000108084 0.0
								CHANNELS 6 Xposition Yposition Zposition Zrotation Xrotation Yrotation 
								End Site
								{
									OFFSET 0.0 0.0 0.0
								}
							}
						}
					}
				}
			}
		}
		JOINT UpperLeg_L
		{
			OFFSET -2.19248 -6.46944 0.0
			CHANNELS 6 Xposition Yposition Zposition Zrotation Xrotation Yrotation 
			JOINT LowerLeg_L
			{
				OFFSET 39.0811 0.0 -1.23785e-05
				CHANNELS 6 Xposition Yposition Zposition Zrotation Xrotation Yrotation 
				JOINT Foot_L
				{
					OFFSET 40.9854 0.0 -1.26872e-05
					CHANNELS 6 Xposition Yposition Zposition Zrotation Xrotation Yrotation 
					JOINT Toes_L
					{
						OFFSET 11.7543 0.0 0.0
						CHANNELS 6 Xposition Yposition Zposition Zrotation Xrotation Yrotation 
						End Site
						{
							OFFSET 0.0 0.0 0.0
						}
					}
				}
			}
		}
		JOINT UpperLeg_R
		{
			OFFSET -2.19251 6.46944 0.0
			CHANNELS 6 Xposition Yposition Zposition Zrotation Xrotation Yrotation 
			JOINT LowerLeg_R
			{
				OFFSET -39.0811 -0.00228153 -0.0401928
				CHANNELS 6 Xposition Yposition Zposition Zrotation Xrotation Yrotation 
				JOINT Foot_R
				{
					OFFSET -40.9854 0.0 0.0
					CHANNELS 6 Xposition Yposition Zposition Zrotation Xrotation Yrotation 
					JOINT Toes_R
					{
						OFFSET -11.7543 0.0 0.0
						CHANNELS 6 Xposition Yposition Zposition Zrotation Xrotation Yrotation 
						End Site
						{
							OFFSET 0.0 0.0 0.0
						}
					}
				}
			}
		}
	}
}
MOTION
Frames:	6
Frame Time:	0.0333333
0.000000 0.000000 0.000000 0.000000 0.000000 -0.000000 132.055000 86.904300 -59.632600 90.503200 -0.751195 6.249600 15.735700 0.000005 -0.000001 94.081300 83.331400 -94.896700 8.984550 -0.406207 -0.000000 5.545250 0.962786 -1.675590 16.377300 -0.000001 -0.000001 0.130889 -4.035260 0.048626 6.456720 -0.000001 -0.000000 -8.463110 -3.940820 -5.855610 12.994200 -0.242716 4.980390 -91.943800 6.203020 -72.562400 5.348090 -0.000007 -0.000001 -64.393200 32.251000 -11.590100 24.328600 0.000019 0.000005 6.093530 19.257900 -17.939200 22.291600 -0.000001 0.000005 11.830400 5.190840 2.955020 12.994500 -0.242716 -4.980390 88.915800 7.456480 -81.702600 -5.348130 -0.000001 -0.000004 -54.605600 28.814200 -25.127100 -24.328900 0.000322 -0.000009 -0.799232 -1.008270 -38.331300 -22.291500 -0.000108 -0.000004 20.191900 5.474500 -5.529250 -2.192480 -6.469440 -0.000000 179.232000 -7.011880 -9.090900 39.081100 -0.000007 -0.000012 -0.075985 0.073638 45.899900 40.985400 -0.000006 -0.000013 3.934680 -2.470000 -81.013800 11.754300 -0.000000 0.000003 -1.602590 -2.187830 -15.299600 -2.192510 6.469440 -0.000001 173.993000 9.515430 166.371000 -39.081100 -0.002282 -0.040193 0.182188 -0.039962 77.430300 -40.985400 0.000008 0.000006 5.021810 -3.594130 -50.837200 -11.754300 -0.000006 -0.000006 -0.023301 -0.184933 -24.135600
0.000000 0.000000 0.000000 0.000000 0.000000 -0.000000 131.882000 87.900000 -56.945000 89.851400 0.996463 5.756010 15.735700 0.000005 -0.000001 89.640700 83.596700 -90.138800 8.984550 -0.406207 -0.000000 5.040280 -0.068314 -0.992036 16.377300 -0.000001 -0.000001 0.024948 -4.070360 -0.520826 6.456720 -0.000001 -0.000000 -8.531440 -3.274510 -7.602200 12.994200 -0.242716 4.980390 -91.766500 5.921200 -73.355800 5.348090 -0.000007 -0.000001 -62.039900 35.812400 -17.088200 24.328600 0.000019 0.000005 7.102660 17.819000 -22.155800 22.291600 -0.000001 0.000005 13.891500 5.222750 2.144070 12.994500 -0.242716 -4.980390 88.842600 7.594100 -81.308200 -5.348130 -0.000001 -0.000004 -57.071300 32.144800 -20.748300 -24.328900 0.000322 -0.000009 0.512616 0.802860 -32.734000 -22.291500 -0.000108 -0.000004 17.365500 5.440870 -4.293850 -2.192480 -6.469440 -0.000000 179.936000 -5.703000 -5.499240 39.081100 -0.000007 -0.000012 0.043490 -0.049413 41.351100 40.985400 -0.000006 -0.000013 4.981850 -2.404740 -80.141200 11.754300 -0.000000 0.000003 -2.081100 -2.819680 -15.147900 -2.192510 6.469440 -0.000001 175.847000 10.282100 162.967000 -39.081100 -0.002282 -0.040193 0.147089 -0.037218 75.515400 -40.985400 0.000008 0.000006 6.601760 -5.678170 -54.557600 -11.754300 -0.000006 -0.000006 -0.024133 -0.189190 -24.311400
0.000000 0.000000 0.000000 0.000000 0.000000 -0.000000 131.690000 88.916000 -54.493000 89.295200 2.626780 4.573520 15.735700 0.000005 -0.000001 85.799000 84.067900 -86.019900 8.984550 -0.406207 -0.000000 4.064970 -0.860676 -0.410724 16.377300 -0.000001 -0.000001 -0.150118 -4.023120 -0.915651 6.456720 -0.000001 -0.000000 -8.319540 -2.826540 -8.106850 12.994200 -0.242716 4.980390 -91.451200 5.075970 -74.022900 5.348090 -0.000007 -0.000001 -59.680600 38.079700 -23.054800 24.328600 0.000019 0.000005 8.339110 17.390800 -26.123800 22.291600 -0.000001 0.000005 14.031400 5.239960 1.696630 12.994500 -0.242716 -4.980390 88.774600 7.771250 -81.010800 -5.348130 -0.000001 -0.000004 -60.858200 34.117400 -15.015700 -24.328900 0.000322 -0.000009 1.991070 3.897750 -27.134200 -22.291500 -0.000108 -0.000004 14.660600 5.398890 -2.896870 -2.192480 -6.469440 -0.000000 -179.203000 -4.968730 -3.154110 39.081100 -0.000007 -0.000012 0.032362 -0.042690 37.163800 40.985400 -0.000006 -0.000013 5.113650 -1.499730 -78.162900 11.754300 -0.000000 0.000003 -1.699430 -2.234510 -15.569100 -2.192510 6.469440 -0.000001 177.666000 10.318100 159.529000 -39.081100 -0.002282 -0.040193 0.112484 -0.038259 70.721400 -40.985400 0.000008 0.000006 7.375820 -6.562720 -58.720600 -11.754300 -0.000006 -0.000006 -0.022761 -0.182128 -24.019700
0.000000 0.000000 0.000000 0.000000 0.000000 -0.000000 131.436000 89.788600 -52.047000 88.829900 4.341000 3.718490 15.735700 0.000005 -0.000001 81.992500 84.316400 -81.956700 8.984550 -0.406207 -0.000000 3.491960 -1.582900 0.119613 16.377300 -0.000001 -0.000001 -0.539360 -3.980430 -1.105750 6.456720 -0.000001 -0.000000 -8.333570 -2.557300 -7.637380 12.994200 -0.242716 4.980390 -91.175200 4.267420 -74.588100 5.348090 -0.000007 -0.000001 -56.731200 39.447700 -29.296400 24.328600 0.000019 0.000005 9.308370 16.415500 -30.114800 22.291600 -0.000001 0.000005 13.223400 5.246400 1.527000 12.994500 -0.242716 -4.980390 88.691800 8.105660 -80.800100 -5.348130 -0.000001 -0.000004 -65.294400 33.971200 -8.479050 -24.328900 0.000322 -0.000009 3.016890 7.452540 -22.133400 -22.291500 -0.000108 -0.000004 12.870400 5.368930 -1.945370 -2.192480 -6.469440 -0.000000 -178.237000 -4.203450 -1.131310 39.081100 -0.000007 -0.000012 0.022431 -0.033273 33.984900 40.985400 -0.000006 -0.000013 5.122600 -0.248143 -75.731100 11.754300 -0.000000 0.000003 -0.876743 -1.093380 -16.353500 -2.192510 6.469440 -0.000001 178.927000 10.091400 157.479000 -39.081100 -0.002282 -0.040193 0.091978 -0.044973 63.139800 -40.985400 0.000008 0.000006 6.907860 -5.954220 -61.587600 -11.754300 -0.000006 -0.000006 -0.021747 -0.176781 -23.799100
0.000000 0.000000 0.000000 0.000000 0.000000 -0.000000 131.113000 90.283600 -49.683100 88.706900 6.114310 2.588470 15.735700 0.000005 -0.000001 77.949800 84.543100 -77.748500 8.984550 -0.406207 -0.000000 2.913350 -2.284750 0.460365 16.377300 -0.000001 -0.000001 -1.218840 -3.996440 -1.132850 6.456720 -0.000001 -0.000000 -8.509110 -2.374910 -6.790160 12.994200 -0.242716 4.980390 -90.972200 3.667480 -75.142500 5.348090 -0.000007 -0.000001 -53.525600 39.798900 -35.239300 24.328600 0.000019 0.000005 10.200600 15.425300 -34.077700 22.291600 -0.000001 0.000005 12.587900 5.254760 1.306450 12.994500 -0.242716 -4.980390 88.553900 8.547980 -80.360700 -5.348130 -0.000001 -0.000004 -69.341800 31.901400 -2.129270 -24.328900 0.000322 -0.000009 3.143490 9.760940 -17.960300 -22.291500 -0.000108 -0.000004 11.559500 5.338430 -1.032650 -2.192480 -6.469440 -0.000000 -177.519000 -3.283550 -0.265107 39.081100 -0.000007 -0.000012 0.015927 -0.025157 32.335600 40.985400 -0.000006 -0.000013 4.746970 1.046780 -73.925200 11.754300 -0.000000 0.000003 -0.001104 -0.016882 -17.263300 -2.192510 6.469440 -0.000001 179.460000 9.856200 155.721000 -39.081100 -0.002282 -0.040193 0.078878 -0.054467 54.245500 -40.985400 0.000008 0.000006 5.613670 -3.402140 -62.703600 -11.754300 -0.000006 -0.000006 -0.022550 -0.181021 -23.974100
0.000000 0.000000 0.000000 0.000000 0.000000 -0.000000 130.731000 90.422400 -47.189400 88.660200 7.691630 1.550670 15.735700 0.000005 -0.000001 73.600500 84.662800 -73.222500 8.984550 -0.406207 -0.000000 2.487440 -3.028710 0.821134 16.377300 -0.000001 -0.000001 -1.821100 -3.903110 -1.019560 6.456720 -0.000001 -0.000000 -8.900170 -2.009700 -5.883910 12.994200 -0.242716 4.980390 -90.821600 3.181250 -75.511700 5.348090 -0.000007 -0.000001 -50.650400 39.321200 -40.172100 24.328600 0.000019 0.000005 11.255400 14.571600 -38.343400 22.291600 -0.000001 0.000005 12.812000 5.267610 0.963697 12.994500 -0.242716 -4.980390 88.445300 8.809120 -79.950300 -5.348130 -0.000001 -0.000004 -72.528500 28.761300 3.401060 -24.328900 0.000322 -0.000009 2.648150 10.328500 -14.470700 -22.291500 -0.000108 -0.000004 10.895600 5.318910 -0.463898 -2.192480 -6.469440 -0.000000 -176.732000 -2.483220 0.516071 39.081100 -0.000007 -0.000012 0.010375 -0.017033 31.343700 40.985400 -0.000006 -0.000013 4.361800 2.296910 -72.988900 11.754300 -0.000000 0.000003 -0.004346 -0.055001 -18.814300 -2.192510 6.469440 -0.000001 179.632000 9.614790 154.433000 -39.081100 -0.002282 -0.040193 0.060006 -0.056124 45.314000 -40.985400 0.000008 0.000006 4.042300 0.439198 -63.037000 -11.754300 -0.000006 -0.000006 -0.022704 -0.181830 -24.007500
